# xmcd
#
# Track frame offsets: 
#        150
#        20373
#        38383
#        54648
#        72952
#        93419
#        110670
#        123899
#        143056
#        157965
#        169658
#        183076
#        194114
#        212728
#        223654
#        236452
#        253675
#        267819
#        279087
#        293499
#
# Disc length: 4140 seconds
#
# Revision: 2
# Processed by: cddbd v1.5.1PL0 Copyright (c) Steve Scherf et al.
# Submitted via: ExactAudioCopy v0.95a5
#
DISCID=18102a14
DTITLE=Enya - Enya
DYEAR=2003
DGENRE=Blues
TTITLE0=Orinoco Flow
TTITLE1=Caribbean Blue
TTITLE2=Only Time
TTITLE3=Anywhere Is
TTITLE4=How Can I Keep From Singing
TTITLE5=Wild Child
TTITLE6=Book Of Days
TTITLE7=Storms In Africa
TTITLE8=Only If
TTITLE9=A Day Without Rain
TTITLE10=The Celts
TTITLE11=Watermark
TTITLE12=Flora's Secret
TTITLE13=Tempus Vernum
TTITLE14=Deora Ar Mo Chroi
TTITLE15=Lazy Days
TTITLE16=The First Of Autumn
TTITLE17=Fallen Embers
TTITLE18=Pilgrim
TTITLE19=One By One
EXTD=
EXTT0=
EXTT1=
EXTT2=
EXTT3=
EXTT4=
EXTT5=
EXTT6=
EXTT7=
EXTT8=
EXTT9=
EXTT10=
EXTT11=
EXTT12=
EXTT13=
EXTT14=
EXTT15=
EXTT16=
EXTT17=
EXTT18=
EXTT19=
PLAYORDER=
